<svg width="80" height="80" viewBox="0 0 80 80" fill="none" xmlns="http://www.w3.org/2000/svg">
<path fill-rule="evenodd" clip-rule="evenodd" d="M-0.00012207 0H79.9999V80H-0.00012207V0Z" fill="black" fill-opacity="0.01"/>
<path fill-rule="evenodd" clip-rule="evenodd" d="M64.6666 24.4666L55.5333 15.3333C53.0657 13.0155 49.2527 12.9151 46.6666 15.0999L16.6666 45.1C15.5891 46.1865 14.9183 47.6106 14.7666 49.1333L13.3333 63.0333C13.2423 64.0218 13.5967 64.9993 14.2999 65.7C14.929 66.3239 15.7806 66.6717 16.6666 66.6666H16.9666L30.8666 65.4C32.3892 65.2483 33.8134 64.5774 34.8999 63.5L64.8999 33.5C67.3242 30.9388 67.2199 26.8992 64.6666 24.4666V24.4666ZM30.2666 58.7333L20.2666 59.6666L21.1666 49.6666L39.9999 31.0666L49 40.0666L30.2666 58.7333ZM53.3332 35.6L44.3999 26.6666L50.8999 20L59.9999 29.1L53.3332 35.6Z" fill="black" fill-opacity="0.431373"/>
</svg>
