<svg id="Capa_1" enable-background="new 0 0 512.033 512.033" height="512" viewBox="0 0 512.033 512.033" width="512" xmlns="http://www.w3.org/2000/svg"><g><path d="m346.033 84.195c8.284 0 15-6.716 15-15v-54.178c0-8.284-6.716-15-15-15s-15 6.716-15 15v54.178c0 8.284 6.716 15 15 15z"/><path d="m286.033 84.195c8.284 0 15-6.716 15-15v-54.178c0-8.284-6.716-15-15-15s-15 6.716-15 15v54.178c0 8.284 6.716 15 15 15z"/><path d="m226.033 84.195c8.284 0 15-6.716 15-15v-54.178c0-8.284-6.716-15-15-15s-15 6.716-15 15v54.178c0 8.284 6.716 15 15 15z"/><path d="m166.033 84.195c8.284 0 15-6.716 15-15v-54.178c0-8.284-6.716-15-15-15s-15 6.716-15 15v54.178c0 8.284 6.716 15 15 15z"/><path d="m407.946 303.905h37.213c36.875 0 66.875-30 66.875-66.875v-11.794c0-36.874-30-66.874-66.875-66.874h-7.409v-14.394c5.822-2.061 10-7.6 10-14.128 0-8.284-6.716-15-15-15h-353.434c-8.284 0-15 6.716-15 15 0 6.528 4.178 12.067 10 14.128v61.883c0 45.748 17.378 88.966 48.934 121.691l25.939 26.901h-70.555c-43.359 0-78.634 35.343-78.634 78.786s35.275 78.787 78.634 78.787h418.186c8.284 0 15-6.716 15-15s-6.716-15-15-15h-2.832c-8.992-12.499-14.06-29.168-14.06-46.746 0-19.587 6.401-38.136 17.31-50.848 8.089-.224 14.582-6.836 14.582-14.979 0-8.284-6.716-15-15-15h-133.944l25.939-26.901c7.112-7.376 13.496-15.288 19.131-23.637zm37.212-115.543c20.333 0 36.875 16.542 36.875 36.874v11.794c0 20.333-16.542 36.875-36.875 36.875h-21.01c8.911-21.264 13.601-44.316 13.601-68.055v-17.488zm-366.524 293.654c-26.817 0-48.634-21.886-48.634-48.787 0-26.9 21.817-48.786 48.634-48.786h382.873c-5.168 10.346-8.711 21.849-10.413 34h-371.452c-8.284 0-15 6.716-15 15s6.716 15 15 15h371.042c1.315 11.828 4.38 23.207 8.994 33.573zm242.567-127.573h-130.337l-46.019-47.726c-26.136-27.104-40.53-62.927-40.53-100.867v-61.011h303.435v61.011c0 25.947-6.736 50.902-19.352 72.757-1.445 1.527-2.568 3.355-3.272 5.384-5.151 8.083-11.13 15.7-17.905 22.727z"/></g></svg>