<svg width="62" height="62" viewBox="0 0 62 62" fill="none" xmlns="http://www.w3.org/2000/svg">
<path fill-rule="evenodd" clip-rule="evenodd" d="M0 0H62V62H0V0Z" fill="black" fill-opacity="0.01"/>
<path fill-rule="evenodd" clip-rule="evenodd" d="M44.9498 56.8333C22.9899 56.8048 5.19497 39.0099 5.1665 17.05C5.1665 10.487 10.4869 5.16665 17.0498 5.16665C17.7172 5.16156 18.3835 5.22213 19.039 5.34748C19.6727 5.44125 20.2957 5.597 20.899 5.81248C21.7623 6.11539 22.401 6.85236 22.5782 7.74998L26.1173 23.25C26.3112 24.1048 26.0583 24.9997 25.4457 25.6266C25.1098 25.9883 25.084 26.0141 21.9065 27.6675C24.4511 33.2497 28.9156 37.7326 34.4873 40.3C36.1665 37.0966 36.1923 37.0708 36.554 36.735C37.181 36.1224 38.0758 35.8695 38.9307 36.0633L54.4307 39.6025C55.2988 39.8039 56.0018 40.4386 56.2907 41.2816C56.5087 41.8948 56.6729 42.5258 56.7815 43.1675C56.8855 43.8167 56.9373 44.4733 56.9365 45.1308C56.8374 51.6635 51.4831 56.8909 44.9499 56.8333L44.9498 56.8333ZM17.0498 10.3333C13.3462 10.3475 10.3473 13.3463 10.3331 17.05C10.3479 36.1632 25.8384 51.6529 44.9507 51.6666C48.6544 51.6525 51.6532 48.6536 51.6674 44.95V44.0975L39.6798 41.3333L38.9306 42.7541C37.7681 45.0016 36.9156 46.6291 34.7456 45.7508C26.0763 42.6477 19.2642 35.8072 16.1973 27.125C15.2673 25.11 17.024 24.18 19.2456 23.0175L20.6665 22.32L17.9023 10.3333H17.0498Z" fill="black" fill-opacity="0.431373"/>
</svg>
