<svg id="Capa_1" enable-background="new 0 0 512 512" height="512" viewBox="0 0 512 512" width="512" xmlns="http://www.w3.org/2000/svg"><g><path d="m497 422c-8.284 0-15 6.716-15 15v.501l-41-46.197v-94.304c0-5.061-2.514-9.527-6.353-12.244l.004-.011-170-120c-5.186-3.66-12.115-3.66-17.301 0l-170 120 .004.011c-3.84 2.717-6.354 7.183-6.354 12.244v94.303l-41 46.197v-.5c0-8.284-6.716-15-15-15s-15 6.716-15 15v60c0 8.284 6.716 15 15 15s15-6.716 15-15v-14.303l41-46.197v60.5c0 8.284 6.716 15 15 15h340c8.284 0 15-6.716 15-15v-60.501l41 46.197v14.304c0 8.284 6.716 15 15 15s15-6.716 15-15v-60c0-8.284-6.716-15-15-15zm-241-226.64 122.739 86.64h-245.478zm-155 286.64v-170h140v62.001l-45 107.999zm127.5 0 27.5-66 27.5 66zm182.5 0h-95l-45-107.999v-62.001h140z"/><path d="m76.137 149.938c12.714 0 25.594-3.232 37.373-10.033 11.366-6.562 20.854-16.078 27.436-27.519 2.669-4.638 2.665-10.347-.011-14.98s-7.617-7.492-12.969-7.5c-16.052-.023-30.984-8.627-38.966-22.453s-7.968-31.059.038-44.972c2.669-4.638 2.665-10.347-.011-14.981s-7.617-7.492-12.968-7.5c-.036 0-.071 0-.107 0-13.162 0-26.107 3.457-37.442 10.001-35.816 20.679-48.129 66.639-27.451 102.452 13.876 24.034 39.136 37.485 65.078 37.485zm-22.628-113.956c.026-.016.052-.03.078-.045-1.929 15.901 1.216 32.284 9.433 46.516s20.833 25.146 35.567 31.427c-.025.015-.052.03-.077.045-21.489 12.403-49.063 5.016-61.471-16.472-12.407-21.488-5.018-49.064 16.47-61.471z"/><path d="m386 190h80c24.813 0 45-20.187 45-45 0-20.126-13.28-37.208-31.538-42.943-5.836-24.103-27.592-42.057-53.462-42.057s-47.626 17.954-53.462 42.057c-18.258 5.735-31.538 22.817-31.538 42.943 0 24.813 20.187 45 45 45zm0-60c8.284 0 15-6.716 15-15 0-13.785 11.215-25 25-25s25 11.215 25 25c0 8.284 6.716 15 15 15 8.271 0 15 6.729 15 15s-6.729 15-15 15h-80c-8.271 0-15-6.729-15-15s6.729-15 15-15z"/><circle cx="481" cy="30" r="15"/><circle cx="331" cy="60" r="15"/><circle cx="256" cy="120" r="15"/><circle cx="201" cy="50" r="15"/><circle cx="161" cy="160" r="15"/><circle cx="61" cy="220" r="15"/></g></svg>