<svg id="Layer_3" enable-background="new 0 0 64 64" height="342" viewBox="0 0 64 64" width="342" xmlns="http://www.w3.org/2000/svg"><g><path d="m58 18h-9.842c.548-1.258.842-2.624.842-4 0-5.514-4.486-10-10-10s-10 4.486-10 10c0 1.376.294 2.742.842 4h-23.842c-2.757 0-5 2.243-5 5v32c0 2.757 2.243 5 5 5h52c2.757 0 5-2.243 5-5v-32c0-2.757-2.243-5-5-5zm-19-12c4.411 0 8 3.589 8 8 0 1.719-.568 3.424-1.6 4.8l-6.4 8.533-6.4-8.533c-1.032-1.376-1.6-3.081-1.6-4.8 0-4.411 3.589-8 8-8zm18 40h-5v-4h5zm0-10h-4c-.552 0-1-.448-1-1v-11h4c.552 0 1 .449 1 1zm-4 2h4v2h-5c-1.103 0-2 .897-2 2v4c0 1.103.897 2 2 2h5v2h-5c-1.103 0-2 .897-2 2v2h-2v-11c0-1.654-1.346-3-3-3h-9c-1.654 0-3 1.346-3 3v3h-2v-3c0-1.654-1.346-3-3-3h-5c-.553 0-1 .447-1 1v.789c0 4.345-1.237 8.551-3.558 12.211h-2.514c2.659-3.839 4.072-8.323 4.072-13 0-.553-.447-1-1-1h-12v-2h10c1.654 0 3-1.346 3-3v-2.838c0-.862.55-1.625 1.368-1.897l4.896-1.633c1.636-.545 2.736-2.07 2.736-3.794v-.838h2v1.675c0 2.156-1.374 4.062-3.419 4.744l-4.214 1.404c-.817.273-1.367 1.036-1.367 1.898v1.279c0 1.654 1.346 3 3 3h20c1.654 0 3-1.346 3-3v-11h2v11c0 1.654 1.346 3 3 3zm4 14v1c0 .552-.448 1-1 1h-4v-2zm-23-4c.552 0 1 .448 1 1s-.448 1-1 1h-4c-.552 0-1-.448-1-1s.448-1 1-1zm-5-1.816c-1.161.414-2 1.514-2 2.816s.839 2.402 2 2.816v2.184h-8.212c2.072-3.66 3.176-7.768 3.211-12h4.001c.552 0 1 .448 1 1zm2 5.816h2v2h-2zm4-.184c1.161-.414 2-1.514 2-2.816s-.839-2.402-2-2.816v-3.184c0-.552.448-1 1-1h9c.552 0 1 .448 1 1v11h-11zm-28-9.816h10.977c-.189 4.007-1.514 7.83-3.858 11.115l-.633.885h-5.486c-.552 0-1-.448-1-1zm0-6v-11c0-.551.448-1 1-1h19v.838c0 .862-.55 1.625-1.368 1.897l-4.896 1.633c-1.636.545-2.736 2.07-2.736 3.794v2.838c0 .552-.448 1-1 1zm39-1c0 .552-.448 1-1 1h-20c-.552 0-1-.448-1-1v-1.279l4.214-1.404c2.862-.955 4.786-3.624 4.786-6.642v-1.675h1l1.565 2.086c-.986.743-1.565 1.79-1.565 2.914 0 2.206 2.243 4 5 4s5-1.794 5-4c0-1.124-.579-2.171-1.565-2.914l1.565-2.086h2zm-4.769-7.308c.48.364.769.828.769 1.308 0 1.084-1.374 2-3 2s-3-.916-3-2c0-.48.289-.944.769-1.308l1.431 1.908c.188.252.485.4.8.4s.611-.148.8-.4zm19.769 27.308c0 1.654-1.346 3-3 3h-52c-1.654 0-3-1.346-3-3v-32c0-1.654 1.346-3 3-3h25l1.5 2h-24.5c-1.654 0-3 1.346-3 3v28c0 1.654 1.346 3 3 3h48c1.654 0 3-1.346 3-3v-28c0-1.654-1.346-3-3-3h-10.5l1.5-2h11c1.654 0 3 1.346 3 3z"/><path d="m39 18c2.757 0 5-2.243 5-5s-2.243-5-5-5-5 2.243-5 5 2.243 5 5 5zm0-8c1.654 0 3 1.346 3 3s-1.346 3-3 3-3-1.346-3-3 1.346-3 3-3z"/></g></svg>