<svg width="68" height="68" viewBox="0 0 68 68" fill="none" xmlns="http://www.w3.org/2000/svg">
<path fill-rule="evenodd" clip-rule="evenodd" d="M-0.00012207 0H67.9999V68H-0.00012207V0Z" fill="black" fill-opacity="0.01"/>
<path fill-rule="evenodd" clip-rule="evenodd" d="M58.1399 43.095L53.0399 37.9667V25.33C53.1803 15.6269 46.1422 7.30692 36.5501 5.83669C31.1037 5.11944 25.6123 6.78234 21.4788 10.4005C17.3453 14.0187 14.9701 19.2417 14.9601 24.735V37.9667L9.86006 43.095C8.55041 44.4265 8.16522 46.4128 8.8822 48.1373C9.59919 49.8618 11.279 50.9895 13.1466 51H22.6666V51.9634C22.9422 57.9521 28.0103 62.5895 33.9999 62.3334C39.9896 62.5895 45.0577 57.9521 45.3333 51.9634V51H54.8533C56.7209 50.9895 58.4008 49.8619 59.1178 48.1373C59.8348 46.4128 59.4496 44.4265 58.1399 43.095H58.1399ZM39.6666 51.9633C39.3402 54.7946 36.8429 56.8673 33.9999 56.6667C31.1569 56.8673 28.6597 54.7946 28.3333 51.9633V51H39.6666V51.9633ZM15.6116 45.3333L18.9549 41.99C20.026 40.9253 20.6278 39.477 20.6266 37.9667V24.735C20.6296 20.8685 22.3027 17.1913 25.2162 14.6486C28.0916 12.0432 31.9657 10.8312 35.8133 11.3333C42.5881 12.4334 47.5185 18.3546 47.3733 25.2167V37.9667C47.3646 39.4729 47.9559 40.9206 49.0166 41.99L52.3883 45.3333H15.6116Z" fill="black" fill-opacity="0.431373"/>
</svg>
