<svg height='100px' width='100px'  fill="#000000" xmlns:x="http://ns.adobe.com/Extensibility/1.0/" xmlns:i="http://ns.adobe.com/AdobeIllustrator/10.0/" xmlns:graph="http://ns.adobe.com/Graphs/1.0/" xmlns="http://www.w3.org/2000/svg" xmlns:xlink="http://www.w3.org/1999/xlink" version="1.1" x="0px" y="0px" viewBox="0 0 216 216" enable-background="new 0 0 216 216" xml:space="preserve"><g><g i:extraneous="self"><g><path d="M146.403,200.838C146.403,200.838,146.403,200.838,146.403,200.838h-0.026l-115.434-0.442     c-1.767-0.007-3.42-0.706-4.656-1.969c-1.236-1.263-1.9-2.931-1.869-4.696l0.345-19.804c0.006-0.381-0.346-0.765-0.726-0.79     l-9.361-0.615c-1.763-0.114-3.37-0.915-4.524-2.253c-1.155-1.338-1.711-3.046-1.566-4.809l7.662-93.218     c0.135-1.651-0.094-4.51-0.49-6.119l-10.8-43.761c-0.448-1.816-0.084-3.65,0.997-5.031c1.082-1.38,2.773-2.172,4.642-2.172     l180.003,0.526c1.771,0.005,3.425,0.705,4.658,1.971c1.233,1.266,1.891,2.937,1.851,4.707l-0.062,2.742     c-0.06,2.621-1.323,6.153-2.939,8.215l-6.185,7.891h17.47c2.064,0,3.743,0.889,4.605,2.44c0.863,1.551,0.733,3.446-0.355,5.201     l-14.516,23.39c-0.551,0.888-0.731,2.788-0.357,3.764l1.414,3.687c0.949,2.475,1.062,6.246,0.262,8.773l-2.216,6.989     c-0.868,2.743-3.551,5.586-6.24,6.612l-5.789,2.208c-0.764,0.291-1.631,1.462-1.688,2.278l-0.762,11.06     c-0.198,2.863-2.119,6.263-4.468,7.908l-7.158,5.016c-1.199,0.84-2.854,2.812-3.472,4.139l-12.405,26.624     c-0.629,1.35-1.124,3.932-1.039,5.418l1.568,27.367c0.103,1.786-0.509,3.478-1.722,4.762     C149.844,200.131,148.191,200.838,146.403,200.838z M10.85,21.16l10.733,43.526c0.549,2.227,0.833,5.762,0.645,8.047     l-7.662,93.218c-0.015,0.188,0.062,0.32,0.129,0.398c0.067,0.077,0.187,0.173,0.374,0.186l9.361,0.615     c3.553,0.231,6.394,3.318,6.333,6.88l-0.345,19.804c-0.003,0.19,0.084,0.32,0.158,0.396s0.202,0.165,0.392,0.166l115.434,0.442     l0.003,3v-3c0.123,0,0.221-0.037,0.29-0.11s0.101-0.174,0.094-0.298l-1.568-27.367c-0.142-2.479,0.542-6.045,1.59-8.296     l12.406-26.624c1.061-2.275,3.411-5.078,5.467-6.519l7.158-5.016c0.88-0.616,1.851-2.336,1.925-3.407l0.762-11.06     c0.218-3.139,2.597-6.351,5.535-7.471l5.789-2.208c0.996-0.379,2.338-1.802,2.659-2.818l2.216-6.989     c0.396-1.25,0.325-3.589-0.144-4.813l-1.414-3.687c-1.039-2.709-0.669-6.611,0.861-9.076l13.57-21.867h-18.24     c-2.136,0-3.808-0.918-4.587-2.52s-0.471-3.483,0.847-5.165l7.766-9.908c0.825-1.052,1.634-3.312,1.664-4.65l0.062-2.742     c0.004-0.186-0.079-0.311-0.149-0.382c-0.07-0.072-0.193-0.159-0.379-0.159L10.85,21.16z"></path></g></g></g></svg>