<svg height="512" viewBox="0 0 60 60" width="512" xmlns="http://www.w3.org/2000/svg"><g id="Page-1" fill="none" fill-rule="evenodd"><g id="030---Pirate-Ship" fill="rgb(0,0,0)" fill-rule="nonzero" transform="translate(0 -1)"><path id="Shape" d="m49.531 42.792c-5.2028681 2.7583411-11.0011753 4.2029401-16.89 4.208h-18.641c-.5522847 0-1 .4477153-1 1s.4477153 1 1 1h18.641c6.2158922-.0054255 12.3362169-1.5303572 17.828-4.442.4764456-.2646059.6532784-.8619939.3976323-1.3433064-.2556462-.4813125-.8496213-.6692905-1.3356323-.4226936z"/><path id="Shape" d="m30.275 44c7.3640543-.0103577 14.6213727-1.7612972 21.18-5.11.3291516-.1561707.5473259-.4789913.5694864-.8426381s-.1551997-.7105712-.4629521-.9055546c-.3077523-.1949835-.6971939-.207169-1.0165343-.0318073-6.2769843 3.2043714-13.222417 4.87991-20.27 4.89h-19.275c-.5522847 0-1 .4477153-1 1s.4477153 1 1 1z"/><path id="Shape" d="m59.153 51.529c-.5346549-.3764865-1.218647-.4704189-1.835-.252-1.0572633.4410033-1.9825405 1.1478792-2.686 2.052-.847.933-1.516 1.671-2.886 1.671s-2.04-.738-2.888-1.672c-.3081249-.3481301-.6342365-.6799161-.977-.994 4.3271196-2.7259938 7.1852539-7.2665733 7.772-12.347l.28-2.383c.0173084-.1595589.0743853-.3122223.166-.444l3.56-5.271c.5327581-.79214.431416-1.8503701-.242-2.527l-.779-.779c-.6935176-.6903268-1.784694-.7774855-2.579-.206-.0432853.026373-.0844138.0561327-.123.089-4.1868925 3.5258097-9.0450491 6.1663119-14.281 7.762.2282257-1.3977974.343598-2.811694.345-4.228-.1018501-2.691549-.7165154-5.3389203-1.811-7.8-.3162795-.7299178-1.0365065-1.2016823-1.832-1.2h-5.357v-2.112c1.1801538-.310875 2.0543653-1.3056811 2.211-2.516l.672-5.372h1.117c.5522847 0 1-.4477153 1-1s-.4477153-1-1-1h-4v-3.382c1.4182283-1.60811974 1.3162204-4.04848514-.2312657-5.53263724s-3.9899825-1.4841521-5.5374686 0-1.649494 3.9245175-.2312657 5.53263724v3.382h-4c-.5522847 0-1 .4477153-1 1s.4477153 1 1 1h1.117l.672 5.372c.1566347 1.2103189 1.0308462 2.205125 2.211 2.516v2.112h-4.479c-.6597687-.0004888-1.277331.3244387-1.6506083.8684599s-.4542386 1.2371347-.2163917 1.8525401c.8129541 1.9980132 1.2685464 4.123321 1.346 6.279-.004405 2.0234103-.2579802 4.0385771-.755 6h-2.568l-1.246-3.107c-.455855-1.1377719-1.5553239-1.8861698-2.781-1.893h-12.65c-1.1045695 0-2 .8954305-2 2v3.17c-.0047513.868954.5464913 1.6436733 1.369 1.924 1.18537886.4791213 2.17270948 1.3469144 2.8 2.461l1.431 2.145c1.8 2.7 4.33 6.493 5.66 8.492l-.127.139c-.849.931-1.517 1.669-2.886 1.669s-2.036-.737-2.882-1.671c-.70266653-.9030128-1.62644097-1.6094488-2.682-2.051-.61393119-.2201089-1.29654544-.1280169-1.83019953.2469133-.5336541.3749303-.85172529.9858917-.85280047 1.6380867v5.837c0 1.1045695.8954305 2 2 2h56c1.1045695 0 2-.8954305 2-2v-5.838c-.000388-.649583-.3162274-1.2585155-.847-1.633zm-29.153-48.529c1.1045695 0 2 .8954305 2 2s-.8954305 2-2 2-2-.8954305-2-2 .8954305-2 2-2zm-1 5.858c.653223.18934029 1.346777.18934029 2 0v2.142h-2zm-2.867 4.142h2.867v3c0 .5522847.4477153 1 1 1s1-.4477153 1-1v-3h2.867l-.64 5.124c-.0625715.5007157-.4883899.8763622-.993.876h-4.468c-.5046101.0003622-.9304285-.3752843-.993-.876zm2.867 8h2v2h-2zm-6.479 4 15.834-.007c.9868781 2.2104994 1.545096 4.5882699 1.645 7.007-.0014922 1.6171173-.1639599 3.2300698-.485 4.815-3.1620949.7832925-6.4073357 1.1811828-9.665 1.185h-6.543c.4575296-1.9672929.6900211-3.9802065.693-6-.0696419-2.4030977-.5706048-4.7741189-1.479-7zm-6.949 10.632.95 2.368h-3.522v-3h1.65c.407377.0031931.7720932.2531938.922.632zm-13.572-.632h3v3h-3zm3.831 6.444c-.34033969-.5127054-.7233672-.9957549-1.145-1.444h2.314c.55228475 0 1-.4477153 1-1s-.44771525-1-1-1v-3h4v3c-.5522847 0-1 .4477153-1 1s.4477153 1 1 1h18.85c10.0013703-.0057066 19.6806015-3.5369831 27.336-9.973l.037-.027.777.77-3.554 5.261c-.2723736.3968022-.4439873.8539813-.5 1.332l-.28 2.391c-.5621727 4.8606568-3.4749944 9.1355114-7.793 11.437-.4494959-.1278486-.9146772-.1921392-1.382-.191-1.7392201.0498518-3.3546925.9114371-4.365 2.328-.846.934-1.515 1.672-2.884 1.672s-2.038-.738-2.885-1.671c-1.0105158-1.4174927-2.6268905-2.2795346-4.367-2.329-1.7392201.0498518-3.3546925.9114371-4.365 2.328-.846.934-1.515 1.672-2.884 1.672s-2.036-.737-2.882-1.671c-1.0097783-1.417302-2.6254786-2.2793789-4.365-2.329-.9777262-.0158395-1.9362274.2724447-2.743.825-1.367-2.054-3.761-5.644-5.49-8.237zm52.169 17.556h-56l.012-5.838c.73963806.3392786 1.38278191.8579873 1.871 1.509 1.00925085 1.4173871 2.62471092 2.2795334 4.364 2.329 1.73952144-.0496211 3.3552217-.911698 4.365-2.329.846-.934 1.514-1.671 2.882-1.671s2.037.738 2.883 1.671c1.0092508 1.4173871 2.6247109 2.2795334 4.364 2.329 1.739836-.0494659 3.3559058-.9115425 4.366-2.329.846-.934 1.515-1.671 2.883-1.671s2.038.738 2.885 1.671c.9763998 1.4554973 2.6138366 2.328795 4.3665 2.328795s3.3901002-.8732977 4.3665-2.328795c.846-.934 1.515-1.671 2.883-1.671s2.039.738 2.886 1.671c.9770981 1.4554741 2.6149667 2.3286465 4.368 2.3286465s3.3909019-.8731724 4.368-2.3286465c.4913848-.6551085 1.1405259-1.175247 1.887-1.512z"/><path id="Shape" d="m27.2 34.6c.3313708.4418278.9581722.5313708 1.4.2l3.4-2.55 3.4 2.55c.2858125.2143594.6642734.2599564.9928203.1196152.3285469-.1403411.5572656-.4452994.6-.8.0427344-.3547005-.1070078-.7052558-.3928203-.9196152l-2.934-2.2 2.934-2.2c.4418278-.3313708.5313708-.9581722.2-1.4s-.9581722-.5313708-1.4-.2l-3.4 2.55-3.4-2.55c-.2858125-.2143594-.6642734-.2599564-.9928203-.1196152-.3285469.1403411-.5572656.4452994-.6.8-.0427344.3547005.1070078.7052558.3928203.9196152l2.934 2.2-2.934 2.2c-.2121732.1591299-.3524422.3960277-.3899495.6585786-.0375073.262551.0308196.5292482.1899495.7414214z"/></g></g></svg>