<svg id="Line" height="512" viewBox="0 0 64 64" width="512" xmlns="http://www.w3.org/2000/svg"><path d="m44.5 50a3.5 3.5 0 1 1 -3.5-3.5 3.5 3.5 0 0 1 3.5 3.5zm-16-3.5a3.5 3.5 0 1 0 3.5 3.5 3.5 3.5 0 0 0 -3.5-3.5zm34.5 3.5a10 10 0 0 1 -10 10h-24a10 10 0 0 1 0-20h24a10 10 0 0 1 10 10zm-29 0a5.5 5.5 0 1 0 -5.5 5.5 5.51 5.51 0 0 0 5.5-5.5zm12.5 0a5.5 5.5 0 1 0 -5.5 5.5 5.51 5.51 0 0 0 5.5-5.5zm12.5 0a5.5 5.5 0 1 0 -5.5 5.5 5.51 5.51 0 0 0 5.5-5.5zm-5.5-3.5a3.5 3.5 0 1 0 3.5 3.5 3.5 3.5 0 0 0 -3.5-3.5zm.5-9.5v-10a3 3 0 0 0 -3-3h-8a3 3 0 0 0 -3 3v10a1 1 0 0 0 1 1h12a1 1 0 0 0 1-1zm-4-5a1 1 0 0 1 -1-1v-3a1 1 0 0 1 2 0v3a1 1 0 0 1 -1 1z" fill="#c4a2fc"/><path d="m2 51h39a1 1 0 0 0 0-2h-5.38l-4.62-9.24a5 5 0 0 0 -4.47-2.76h-5.53v-13.76l4.14-8.24a5.52 5.52 0 0 0 4.8-4.66l4.27-1.07a4 4 0 0 0 2.79 2.59v4.52l-5.45 2.73a1 1 0 0 0 -.55.89v6a1 1 0 0 0 2 0v-5.38l5-2.5 5 2.5v5.38a1 1 0 0 0 2 0v-6a1 1 0 0 0 -.55-.89l-5.45-2.73v-4.52a4 4 0 0 0 -1-7.86h-13.5a5.5 5.5 0 0 0 -5.5 5.13l-5.5 6.87a7 7 0 0 0 -6.5 7v14.88l-2.78 11.12h-2.22a1 1 0 0 0 0 2zm21-36.22-2.64 5.29a7 7 0 0 0 -4.48-3.81l3.61-4.51a5.5 5.5 0 0 0 3.51 3.03zm11.08-7.58-4.23 1.06a5.39 5.39 0 0 0 -1.1-2.26h5.79a4 4 0 0 0 -.46 1.2zm5.92.8a2 2 0 1 1 -2.39-2h.52a2 2 0 0 1 1.87 2zm-15.5-2a3.5 3.5 0 1 1 -3.5 3.5 3.5 3.5 0 0 1 3.5-3.5zm-10.5 12a5 5 0 1 1 -5 5 5 5 0 0 1 5-5zm0 12a7 7 0 0 0 5-2.11v9.11h-10v-9.11a7 7 0 0 0 5 2.11zm-5.22 9h17.75a3 3 0 0 1 2.68 1.66l4.17 8.34h-27.1z" fill="#151a6a"/></svg>