<svg width="463" height="5" viewBox="0 0 463 5" fill="none" xmlns="http://www.w3.org/2000/svg">
<path fill-rule="evenodd" clip-rule="evenodd" d="M86.7814 113.498H86.7655L16.2054 113.228C15.1253 113.224 14.1148 112.796 13.3593 112.024C12.6038 111.252 12.1979 110.233 12.2169 109.154L12.4278 97.0485C12.4314 96.8156 12.2163 96.5808 11.984 96.5656L6.262 96.1897C5.18435 96.12 4.20205 95.6304 3.49666 94.8125C2.79066 93.9946 2.45079 92.9506 2.53943 91.8729L7.2229 34.8925C7.30542 33.8833 7.16544 32.1357 6.92338 31.1522L0.321779 4.4029C0.0479347 3.29286 0.270433 2.17181 0.931204 1.32766C1.59259 0.484117 2.62623 0 3.76867 0L113.797 0.321523C114.88 0.324579 115.891 0.75246 116.644 1.52632C117.398 2.30017 117.8 3.32159 117.776 4.40351L117.738 6.07959C117.701 7.6817 116.929 9.84067 115.942 11.1011L112.161 15.9245H122.84C124.101 15.9245 125.128 16.4679 125.654 17.416C126.182 18.3641 126.102 19.5224 125.437 20.5952L116.564 34.8925C116.228 35.4353 116.118 36.5967 116.346 37.1933L117.21 39.447C117.791 40.9599 117.86 43.2649 117.371 44.8096L116.016 49.0817C115.486 50.7584 113.845 52.4962 112.202 53.1233L108.663 54.473C108.196 54.6509 107.666 55.3667 107.631 55.8655L107.166 62.626C107.045 64.376 105.87 66.4543 104.435 67.4598L100.059 70.5259C99.3262 71.0394 98.3146 72.2448 97.9368 73.0559L90.3542 89.3301C89.9697 90.1553 89.6671 91.7335 89.7191 92.6419L90.6775 109.37C90.7405 110.462 90.3664 111.496 89.6249 112.281C88.8847 113.066 87.8743 113.498 86.7814 113.498ZM3.92332 3.66818L10.484 30.2739C10.8195 31.6351 10.9931 33.7959 10.8782 35.1927L6.19476 92.1731C6.18559 92.288 6.23266 92.3687 6.27361 92.4164C6.31457 92.4634 6.38792 92.5221 6.50222 92.53L12.2242 92.906C14.396 93.0472 16.1326 94.9341 16.0953 97.1114L15.8844 109.217C15.8826 109.333 15.9358 109.412 15.981 109.459C16.0263 109.505 16.1045 109.56 16.2206 109.56L86.7808 109.831L86.7826 111.664V109.831C86.8578 109.831 86.9177 109.808 86.9599 109.763C87.0021 109.719 87.0216 109.657 87.0173 109.581L86.0589 92.8528C85.9721 91.3375 86.3902 89.1577 87.0308 87.7818L94.6141 71.5076C95.2626 70.117 96.6991 68.4036 97.9558 67.5228L102.331 64.4567C102.869 64.0802 103.463 63.0288 103.508 62.3742L103.974 55.6136C104.107 53.6949 105.561 51.7315 107.357 51.0469L110.896 49.6973C111.504 49.4656 112.325 48.5958 112.521 47.9747L113.875 43.7026C114.118 42.9386 114.074 41.5088 113.787 40.7606L112.923 38.5069C112.288 36.851 112.514 34.4659 113.449 32.9591L121.744 19.5927H110.595C109.289 19.5927 108.267 19.0316 107.791 18.0523C107.315 17.0731 107.503 15.9233 108.309 14.8952L113.056 8.83883C113.56 8.19578 114.055 6.81434 114.073 5.99647L114.111 4.3204C114.113 4.2067 114.063 4.13029 114.02 4.0869C113.977 4.04288 113.902 3.98971 113.788 3.98971L3.92332 3.66818Z" fill="black"/>
<path fill-rule="evenodd" clip-rule="evenodd" d="M380.047 353.72C377.856 353.72 375.681 352.383 374.76 350.468L370.369 341.341C370.029 340.635 368.901 339.749 368.133 339.587L365.979 339.134C363.655 338.645 361.558 336.517 361.104 334.184L360.649 331.849C360.455 330.853 359.577 329.243 358.845 328.537L355.751 325.564C354.104 323.98 353.31 321.122 353.902 318.917L354.093 318.206C353.881 318.232 353.663 318.245 353.446 318.245C351.143 318.245 348.957 316.78 348.129 314.682L340.841 296.221C340.162 294.5 339.809 291.817 340.021 289.978L342.122 271.844C342.249 270.746 341.985 268.815 341.568 267.793L341.157 266.783C340.893 266.134 339.88 265.32 339.188 265.2L336.815 264.792C334.821 264.447 332.379 262.986 331.133 261.392L319.223 246.147C318.971 245.824 318.289 245.476 317.626 245.476C317.48 245.476 317.378 245.494 317.32 245.51L295.717 251.307C295.169 251.454 294.565 251.529 293.92 251.529C292.156 251.529 290.292 250.967 289.056 250.063L275.648 240.255C274.838 239.662 273.122 239.101 272.118 239.101H251.272C249.87 239.101 248.606 238.506 247.804 237.467C247.003 236.429 246.747 235.056 247.102 233.699L248.003 230.25C248.089 229.921 247.85 229.44 247.536 229.304L247.519 229.297C245.195 228.367 243.675 225.701 244.059 223.226L244.079 223.101C244.469 220.597 246.766 218.633 249.308 218.633L249.45 218.635L294.451 219.923C296.799 219.99 299.261 221.672 300.178 223.836L300.617 224.871C300.866 225.46 301.802 226.127 302.439 226.172L348.487 229.375C350.454 229.512 352.318 230.614 353.257 232.09L353.084 228.942C353.013 227.67 353.432 226.488 354.261 225.611C355.237 224.58 356.681 224.105 358.164 224.334L364.294 225.275C366.664 225.639 368.854 227.675 369.389 230.013L373.911 249.805C374.188 251.015 374.991 253.006 375.631 254.065L386.547 272.176C387.766 274.198 387.662 277.181 386.305 279.114L386.128 279.366C385.724 279.941 385.584 281.238 385.856 281.887L398.374 311.728C399.07 313.388 399.57 315.995 399.539 317.794L399.256 333.388C399.218 335.504 398.187 337.949 396.805 339.204C396.399 339.571 395.74 340.867 395.662 341.905L395.3 346.69C395.113 349.158 393.06 351.437 390.625 351.882L380.984 353.638C380.678 353.692 380.364 353.72 380.047 353.72ZM354.85 313.625C356.124 313.625 357.267 314.163 357.986 315.099C358.727 316.067 358.95 317.373 358.597 318.686L358.223 320.077C358.052 320.716 358.375 321.878 358.852 322.338L361.946 325.311C363.34 326.653 364.671 329.095 365.041 330.992L365.495 333.327C365.605 333.89 366.341 334.637 366.901 334.755L369.056 335.208C371.168 335.654 373.466 337.456 374.402 339.401L378.792 348.526C378.991 348.939 379.684 349.323 380.181 349.234L389.821 347.478C390.27 347.396 390.801 346.806 390.836 346.35L391.198 341.564C391.355 339.496 392.448 337.108 393.798 335.885C394.172 335.547 394.762 334.285 394.779 333.306L395.062 317.712C395.082 316.554 394.693 314.527 394.245 313.457L381.727 283.615C380.863 281.553 381.18 278.62 382.464 276.791L382.641 276.539C382.977 276.061 383.015 274.985 382.712 274.485L371.796 256.374C370.916 254.914 369.928 252.466 369.547 250.8L365.024 231.008C364.9 230.467 364.162 229.781 363.613 229.696L357.553 228.766L357.788 233.018C357.871 234.539 357.406 235.952 356.513 236.897C355.822 237.626 354.916 238.027 353.961 238.027C351.959 237.991 350.046 236.436 349.447 234.409C349.358 234.271 348.78 233.881 348.174 233.838L302.126 230.635C299.818 230.474 297.397 228.747 296.495 226.617L296.056 225.582C295.819 225.023 294.927 224.413 294.321 224.396L249.321 223.108C248.96 223.108 248.552 223.453 248.499 223.792L248.479 223.915C248.414 224.334 248.772 224.967 249.165 225.136L249.184 225.144C251.609 226.114 252.992 228.853 252.332 231.381L251.485 234.619L272.115 234.625C274.063 234.625 276.717 235.492 278.289 236.642L291.696 246.45C292.096 246.743 293.01 247.054 293.918 247.054C294.163 247.054 294.389 247.029 294.555 246.985L316.158 241.187C316.622 241.062 317.115 241 317.625 241C319.601 241 321.612 241.938 322.747 243.39L334.658 258.635C335.224 259.36 336.669 260.224 337.575 260.381L339.948 260.789C342.153 261.171 344.454 263.02 345.299 265.092L345.711 266.102C346.412 267.821 346.78 270.511 346.566 272.357L344.466 290.49C344.338 291.595 344.593 293.542 345.001 294.576L352.289 313.038C352.448 313.441 353.059 313.828 353.537 313.764L354.158 313.676C354.397 313.64 354.628 313.625 354.85 313.625Z" fill="black"/>
<path fill-rule="evenodd" clip-rule="evenodd" d="M375.54 59.4807L401.953 84.8104C405.749 85.2123 409.902 83.6541 413.465 84.2322C413.712 81.9926 416.126 79.263 417.003 77.2684C418.301 74.311 419.481 72.5937 421.908 70.2423C426.797 65.5009 433.22 60.9701 440.039 62.0469C440.749 62.1587 441.808 62.1609 442.462 62.5069C443.68 63.1538 443.091 64.2607 444.706 64.2221C447.887 64.1447 447.727 59.3323 448.97 57.5764C449.999 56.1256 453.825 53.7828 449.241 53.4239C447.476 53.2863 444.998 54.6834 442.844 54.4233C441.043 49.7743 447.098 50.4643 447.046 46.9759C446.232 46.6514 444.284 46.6191 443.861 45.8862C442.629 43.7584 445.176 42.7332 446.82 42.6235C450.079 42.4086 452.159 45.3338 454.397 42.6472C455.79 40.9729 455.972 39.1287 457.64 37.5124C459.138 36.0574 459.704 35.9348 460 33.547C460.129 32.511 460.133 30.9312 459.777 29.9941C459.022 28.0189 458.934 28.7174 457.569 28.3886C455.549 27.9007 453.047 27.5826 450.315 28.1221C447.424 28.6916 445.112 29.3407 442.249 28.7002C441.587 28.5519 439.603 29.7255 440.678 27.5826C441.656 25.6396 444.811 26.3338 446.365 25.977C449.473 25.2613 451.489 23.1098 454.12 22.4199C456.815 21.7128 457.481 20.9885 456.707 17.8591C456.409 16.6511 455.74 13.6077 454.88 12.806L333.713 12C334.555 12.8941 333.289 12.2472 332.638 12.806C331.851 13.4787 331.78 12.9092 331.101 14.1493C330.323 15.5722 331.032 17.0745 330.16 18.3942C330.274 18.2244 328.234 19.2733 328.275 19.2475C327.854 19.5011 327.497 20.2792 327 20.5973C326.158 21.1325 325.249 20.5457 324.363 21.4635C323.991 21.8503 324.462 22.8627 324.114 23.357C321.747 26.7056 319.067 21.4699 315.667 24.206C313.653 25.8223 314.321 27.6342 311.413 27.5826C309.578 27.5503 309.221 26.7529 307.921 25.6675C306.969 26.7013 305.501 26.9722 304.703 27.8168C303.502 29.0914 303.429 31.2235 301.75 32.1585C300.357 32.9322 298.156 32.3433 296.579 33.1515C294.849 34.037 294.926 35.909 293.426 36.7301C292.523 37.2244 289.342 37.4007 288.302 37.5296C286.909 37.7016 285.847 37.5081 284.336 37.9552C279.904 39.2641 280.306 40.4226 279.133 44.4612C278.301 44.6202 277.201 44.7557 276.5 45.2393C274.682 46.5031 276.042 46.185 275.148 48.0119C274.656 49.0156 274.189 48.9382 273.596 49.8882C273.28 50.3976 273.08 52.5534 272.992 51.4916L301.204 52.0333C302.268 52.4803 305.357 51.4444 306.592 51.0381C307.366 50.7845 307.79 50.1032 308.727 49.8861C309.576 49.6862 310.573 50.101 311.413 49.8904C313.87 49.28 314.564 47.9044 317.339 48.0033C320.303 48.1107 323.254 48.3214 326.194 48.6008C329.616 48.9232 333.175 48.4525 336.61 48.8093C339.312 49.0908 342.34 50.0967 345.016 50.6985C347.718 51.3046 347.741 51.9451 348.743 54.1826C349.482 55.829 350.961 57.5871 350.677 59.4807H375.54V59.4807Z" stroke="black" stroke-width="4"/>
<path fill-rule="evenodd" clip-rule="evenodd" d="M0 219H106V325H0V219Z" fill="black" fill-opacity="0.01"/>
<path fill-rule="evenodd" clip-rule="evenodd" d="M0 219H106V325H0V219Z" fill="black" fill-opacity="0.01"/>
<path fill-rule="evenodd" clip-rule="evenodd" d="M53 227.833C28.6074 227.833 8.83331 247.607 8.83331 272C8.83332 296.393 28.6074 316.167 53 316.167C77.3926 316.167 97.1666 296.393 97.1666 272C97.1666 247.607 77.3926 227.833 53 227.833H53ZM53 236.667C55.6613 236.684 58.3127 236.995 60.9058 237.594C60.1381 239.327 58.9548 240.844 57.4608 242.011C56.4891 242.762 55.4291 243.38 54.3691 244.043C51.0135 245.695 48.1842 248.249 46.1983 251.418C44.0228 255.952 43.0784 260.979 43.46 265.993C43.46 272 43.46 275.533 39.2642 278.669C33.2133 283.395 23.9825 280.745 18.2408 278.36C17.8655 276.261 17.6733 274.133 17.6666 272C17.6666 252.486 33.4859 236.667 53 236.667V236.667ZM22.0833 288.783C24.9693 289.534 27.9351 289.934 30.9167 289.976C35.9057 290.113 40.7941 288.556 44.785 285.559C52.3375 279.641 52.3375 272.044 52.3375 265.949C52.0025 262.421 52.5647 258.866 53.9717 255.614C55.2499 253.874 56.953 252.49 58.9183 251.595C60.3226 250.774 61.6792 249.875 62.9817 248.901C65.7264 246.733 67.8578 243.886 69.165 240.642C75.379 243.821 80.5121 248.77 83.9166 254.863C77.6008 255.747 68.635 257.822 66.8683 266.037C66.4696 268 66.2625 269.997 66.25 272C66.3929 274.239 65.9516 276.476 64.9691 278.492L64.5275 279.243C61.6566 284.013 58.4325 289.446 62.805 296.91C63.335 297.837 63.9091 298.721 64.4833 299.604C65.6588 300.962 66.4515 302.608 66.78 304.374C62.4361 306.289 57.7469 307.296 53 307.333C40.0777 307.269 28.2213 300.155 22.0833 288.783H22.0833ZM74.7741 299.913C74.0101 298.15 73.0783 296.464 71.9916 294.878C71.5057 294.172 71.0199 293.465 70.5782 292.714C68.8557 289.711 69.4741 288.298 72.2566 283.881L72.6982 283.13C74.4292 279.827 75.2522 276.123 75.0832 272.398C75.0788 270.916 75.2119 269.437 75.4808 267.981C76.1874 264.757 83.0333 263.873 87.2733 263.564C90.7764 277.184 85.804 291.58 74.6416 300.134L74.7741 299.913Z" fill="black" fill-opacity="0.870588"/>
<path d="M33 268L53 113" stroke="#2B0C47" stroke-width="3"/>
<path d="M37 266L350 60" stroke="#2B0C47" stroke-width="3"/>
<path d="M35 279L271 241" stroke="#2B0C47" stroke-width="3"/>
<path fill-rule="evenodd" clip-rule="evenodd" d="M25.0001 33.5C25.0001 28.5294 25.8579 28 30.0001 28C34.1422 28 35.0001 29.0294 35.0001 34C35.0001 38.9706 30.0001 40 30.0001 40L27.7651 38.8179C27.7651 38.8179 25.0001 38.4706 25.0001 33.5Z" fill="black" fill-opacity="0.870588"/>
<path fill-rule="evenodd" clip-rule="evenodd" d="M357 273.5C357 268.529 357.858 268 362 268C366.142 268 367 269.029 367 274C367 278.971 362 280 362 280L359.765 278.818C359.765 278.818 357 278.471 357 273.5Z" fill="black" fill-opacity="0.870588"/>
<path fill-rule="evenodd" clip-rule="evenodd" d="M351 33.5C351 28.5294 351.858 28 356 28C360.142 28 361 29.0294 361 34C361 38.9706 356 40 356 40L353.765 38.8179C353.765 38.8179 351 38.4706 351 33.5Z" fill="black" fill-opacity="0.870588"/>
</svg>
