<?xml version="1.0" encoding="iso-8859-1"?>
<!-- Generator: Adobe Illustrator 19.0.0, SVG Export Plug-In . SVG Version: 6.00 Build 0)  -->
<svg version="1.1" id="Capa_1" xmlns="http://www.w3.org/2000/svg" xmlns:xlink="http://www.w3.org/1999/xlink" x="0px" y="0px"
	 viewBox="0 0 912 912" style="enable-background:new 0 0 512 512;" height="342" width="342" xml:space="preserve">
<g>
	<g>
		<path d="M493.163,18.797c-28.668-28.67-76.346-23.855-98.746,9.747L347.791,98.09h-34.414c-4.067,0-7.959,1.652-10.785,4.577
			l-21.207,21.951c-5.685,5.884-5.604,15.238,0.182,21.023l10.604,10.603l-63.624,63.623l-43.42-43.42
			c-22.275-22.277-60.026-15.303-72.881,13.449L5.083,429.59c-9.842,22.014-4.999,48.261,12.053,65.312
			c17.079,17.079,43.332,21.88,65.311,12.053l239.694-107.163c28.76-12.859,35.72-50.61,13.449-72.881l-43.42-43.42l63.623-63.623
			l10.604,10.604c5.89,5.891,15.451,5.847,21.291-0.084l20.874-21.207c2.761-2.805,4.309-6.583,4.309-10.519v-34.363l70.513-46.731
			C517.101,95.089,521.778,47.41,493.163,18.797z M314.383,348.118c7.449,7.45,5.122,20-4.483,24.293L70.206,479.575
			c-10.737,4.802-23.543,2.439-31.863-5.879c-8.319-8.319-10.682-21.123-5.879-31.863l107.163-239.693
			c4.291-9.597,16.839-11.937,24.293-4.483l43.42,43.42l-3.145,3.145c-22.172,22.173-34.384,51.653-34.384,83.011
			c0,8.282,6.714,14.996,14.996,14.996c31.357,0,60.838-12.211,83.011-34.384l3.145-3.145L314.383,348.118z M246.611,286.635
			c-12.537,12.537-28.211,20.795-45.252,24.044c3.249-17.04,11.508-32.715,24.044-45.252l13.744-13.744
			c0.001-0.001,0.003-0.002,0.004-0.004c0.001-0.002,0.003-0.003,0.004-0.004l74.223-74.222l21.207,21.207L246.611,286.635z
			 M466.782,92.589l-77.191,51.156c-4.192,2.777-6.712,7.472-6.712,12.5v36.273l-5.962,6.057l-63.719-63.719l6.544-6.774h36.051
			c5.001,0,9.671-2.492,12.456-6.645l51.101-76.224c11.974-17.961,37.368-20.448,52.607-5.209
			C487.206,55.254,484.681,80.656,466.782,92.589z"/>
	</g>
</g>
<g>
</g>
<g>
</g>
<g>
</g>
<g>
</g>
<g>
</g>
<g>
</g>
<g>
</g>
<g>
</g>
<g>
</g>
<g>
</g>
<g>
</g>
<g>
</g>
<g>
</g>
<g>
</g>
<g>
</g>
</svg>
